<?xml version="1.0" encoding="utf-8"?>
<!-- Generator: Adobe Illustrator 23.0.2, SVG Export Plug-In . SVG Version: 6.00 Build 0)  -->
<svg version="1.1" id="Lager_1" xmlns="http://www.w3.org/2000/svg" xmlns:xlink="http://www.w3.org/1999/xlink" x="0px" y="0px"
	 viewBox="0 0 500 500" style="enable-background:new 0 0 500 500;" xml:space="preserve">
<style type="text/css">
	.st0{opacity:0;fill:#9F0086;fill-opacity:0;}
	.st1{fill:#55555F;fill-opacity:0.9412;}
	.st2{fill:url(#SVGID_1_);fill-opacity:0.9412;}
	.st3{fill:url(#SVGID_2_);fill-opacity:0.9412;}
	.st4{fill:url(#SVGID_3_);fill-opacity:0.9412;}
	.st5{opacity:0.9412;}
	.st6{fill-rule:evenodd;clip-rule:evenodd;fill:#2AFF2A;}
</style>
<rect class="st0" width="500" height="500"/>
<path class="st1" d="M269.7,78.2C174.8,67.3,89.1,135.4,78.2,230.3c-10.9,94.9,57.2,180.6,152.1,191.5s180.6-57.2,191.5-152.1
	C432.7,174.8,364.6,89.1,269.7,78.2L269.7,78.2z M268,93.7c86.4,9.9,148.3,88,138.4,174.3c-9.9,86.4-88,148.3-174.3,138.4
	c-86.4-9.9-148.3-88-138.4-174.3C103.6,145.7,181.6,83.7,268,93.7z"/>
<linearGradient id="SVGID_1_" gradientUnits="userSpaceOnUse" x1="164.144" y1="284.8876" x2="164.144" y2="284.8876">
	<stop  offset="0" style="stop-color:#FFFFFF"/>
	<stop  offset="1" style="stop-color:#000000"/>
</linearGradient>
<path class="st2" d="M164.1,284.9"/>
<linearGradient id="SVGID_2_" gradientUnits="userSpaceOnUse" x1="192.2452" y1="252.0805" x2="192.2452" y2="252.0805">
	<stop  offset="0" style="stop-color:#FFFFFF"/>
	<stop  offset="1" style="stop-color:#000000"/>
</linearGradient>
<path class="st3" d="M192.2,252.1"/>
<linearGradient id="SVGID_3_" gradientUnits="userSpaceOnUse" x1="212.0991" y1="332.8239" x2="212.0991" y2="332.8239">
	<stop  offset="0" style="stop-color:#FFFFFF"/>
	<stop  offset="1" style="stop-color:#000000"/>
</linearGradient>
<path class="st4" d="M212.1,332.8"/>
<g>
	<g>
		<g>
			<g class="st5">
				<path class="st6" d="M345.9,148.6c-0.7,0-1.3,0.2-1.8,0.7c-0.8,0.8-0.9,1.9-0.5,2.9l-4.4,4.4c-7.5,2.4-44,14.8-61.2,29.1
					c-18.2,15.1-42.4,44.6-61.2,59.1l-24.5,7.2c5.6-9.7,8.2-20.2,8.2-20.2s-12.9,3.1-23.2,10c-9.1,6-28.8,25.3-33.5,30l-1.5-1.5
					l-3.9,3.9l2.7,2.7c-0.6,1-7,11.3-10,17.1c-2.3,4.4-4.4,11.7-4.4,11.7s7.3-2.1,11.7-4.4c5.8-3,16.1-9.4,17.1-10l2.7,2.7l3.9-3.9
					l-1.5-1.5c0.9-1,1.5-1.5,3.7-3.8l12.5,2.4c17,3.2,5,21.2,8.5,24.6c3.4,3.4,21.4-8.5,24.6,8.5l2.4,12.5c-2.2,2.2-2.8,2.8-3.8,3.7
					l-1.5-1.5l-3.9,3.9l2.7,2.7c-0.6,1-7,11.3-10,17.1c-2.3,4.4-4.4,11.7-4.4,11.7s7.3-2.1,11.7-4.4c5.8-3,16.1-9.4,17.1-10l2.7,2.7
					l3.9-3.9l-1.5-1.5c4.7-4.8,23.9-24.5,30-33.6c6.8-10.4,10.1-23.2,10.1-23.2s-10.5,2.6-20.1,8.1l7.2-24.4
					c14.5-18.8,44-43.1,59.1-61.2c14.3-17.2,26.7-53.7,29.1-61.2l4.4-4.4c0.9,0.5,2.1,0.3,2.9-0.5c1-1,1-2.5,0-3.5
					C347.2,148.9,346.6,148.7,345.9,148.6L345.9,148.6z M290,195.2c4.6,0.1,8.9,2.8,10.8,7.2c1.8,4,1.1,8.8-1.7,12.2
					c-4.5,5.6-12.8,5.9-17.8,1l0,0c-2.9-2.9-4.2-7.1-3.2-11.1C279.7,198.6,284.7,195.1,290,195.2L290,195.2z M143.6,279.6l9.2,9.2
					c-1.4,0.8-6.2,3.5-9.7,5.3c-2.9,1.5-8.7,3.8-8.7,3.8s2.3-5.8,3.8-8.7C140.1,285.8,142.8,281,143.6,279.6L143.6,279.6z
					 M208.3,344.2l9.2,9.2c-1.4,0.8-6.2,3.5-9.7,5.3c-2.9,1.5-8.7,3.8-8.7,3.8c0,0,2.3-5.8,3.8-8.7
					C204.7,350.4,207.5,345.6,208.3,344.2L208.3,344.2z"/>
			</g>
		</g>
	</g>
</g>
</svg>
